<?xml version="1.0" encoding="UTF-8" standalone="no"?>
<svg
   xmlns:dc="http://purl.org/dc/elements/1.1/"
   xmlns:cc="http://creativecommons.org/ns#"
   xmlns:rdf="http://www.w3.org/1999/02/22-rdf-syntax-ns#"
   xmlns:svg="http://www.w3.org/2000/svg"
   xmlns="http://www.w3.org/2000/svg"
   xmlns:sodipodi="http://sodipodi.sourceforge.net/DTD/sodipodi-0.dtd"
   xmlns:inkscape="http://www.inkscape.org/namespaces/inkscape"
   id="svg86"
   viewBox="0 0 22 22"
   version="1.1"
   height="22"
   width="22"
   sodipodi:docname="disk.svg"
   inkscape:version="1.0 (4035a4fb49, 2020-05-01)">
  <sodipodi:namedview
     inkscape:document-rotation="0"
     pagecolor="#00bd31"
     bordercolor="#666666"
     borderopacity="1"
     objecttolerance="10"
     gridtolerance="10"
     guidetolerance="10"
     inkscape:pageopacity="0"
     inkscape:pageshadow="2"
     inkscape:window-width="1920"
     inkscape:window-height="932"
     id="namedview48"
     showgrid="true"
     inkscape:zoom="12.261874"
     inkscape:cx="99.140237"
     inkscape:cy="22.230529"
     inkscape:window-x="0"
     inkscape:window-y="36"
     inkscape:window-maximized="1"
     inkscape:current-layer="svg86">
    <inkscape:grid
       type="xygrid"
       id="grid889" />
  </sodipodi:namedview>
  <metadata
     id="metadata88">
    <rdf:RDF>
      <cc:Work
         rdf:about="">
        <dc:format>image/svg+xml</dc:format>
        <dc:type
           rdf:resource="http://purl.org/dc/dcmitype/StillImage" />
        <dc:title />
      </cc:Work>
    </rdf:RDF>
  </metadata>
  <defs
     id="defs5">
    <style
       type="text/css"
       id="current-color-scheme">.ColorScheme-Text {
        color:#363636;
      }
      .ColorScheme-Background {
        color:#efefef;
      }
      .ColorScheme-Highlight {
        color:#3498db;
      }
      .ColorScheme-ViewText {
        color:#363636;
      }
      .ColorScheme-ViewBackground {
        color:#fcfcfc;
      }
      .ColorScheme-ViewHover {
        color:#93cee9;
      }
      .ColorScheme-ViewFocus{
        color:#3daee9;
      }
      .ColorScheme-ButtonText {
        color:#363636;
      }
      .ColorScheme-ButtonBackground {
        color:#efefef;
      }
      .ColorScheme-ButtonHover {
        color:#93cee9;
      }
      .ColorScheme-ButtonFocus{
        color:#3daee9;
      }
      .ColorScheme-NegativeText{
        color:#e74c3c;
      }</style>
  </defs>
  <g
     id="disk-quota">
    <rect
       id="rect7"
       stroke-width="1.76"
       opacity="0"
       height="22"
       width="22"
       y="-1.4648437e-05"
       x="0.019989014"
       style="color:#363636;fill:#363636" />
    <g
       id="g899"
       transform="translate(0,-27)">
      <path
         d="m 11,34 a 5,5 0 0 0 -5,5 5,5 0 0 0 5,5 5,5 0 0 0 5,-5 h -5 z"
         style="opacity:0.35;fill:#ffffff;fill-opacity:1;stroke-width:0.3;stroke-linecap:round"
         id="rect886" />
      <path
         d="m 6,29 c -1.108,0 -2,0.892 -2,2 v 14 c 0,1.108 0.892,2 2,2 h 10 c 1.108,0 2,-0.892 2,-2 V 31 c 0,-1.108 -0.892,-2 -2,-2 z m 0,2 h 1 v 2 H 6 Z m 2,0 h 1 v 2 H 8 Z m 2,0 h 1 v 2 h -1 z m 2,0 h 1 v 2 h -1 z m 2,1 h 1 v 1 h -1 z m -3,2 a 5,5 0 0 1 5,5 5,5 0 0 1 -5,5 5,5 0 0 1 -5,-5 5,5 0 0 1 5,-5 z m 5,10 a 1,1 0 0 1 1,1 1,1 0 0 1 -1,1 1,1 0 0 1 -1,-1 1,1 0 0 1 1,-1 z"
         style="opacity:1;fill:#ffffff;fill-opacity:1;stroke-width:0.3;stroke-linecap:round"
         id="rect882" />
      <circle
         r="2"
         cy="38.983547"
         cx="11"
         id="path894"
         style="opacity:1;fill:#ffffff;fill-opacity:1;stroke-width:0.3;stroke-linecap:round" />
    </g>
  </g>
  <g
     id="disk-quota-missing">
    <rect
       x="24.003988"
       y="0.99998534"
       width="22"
       height="22"
       opacity="0"
       stroke-width="1.76"
       id="rect24"
       style="color:#363636;fill:#363636" />
    <g
       id="g943"
       transform="translate(0,-23)">
      <g
         id="g907"
         transform="translate(24,-3)">
        <path
           d="m 11,34 a 5,5 0 0 0 -5,5 5,5 0 0 0 5,5 5,5 0 0 0 5,-5 h -5 z"
           style="opacity:0.35;fill:#ffffff;fill-opacity:1;stroke-width:0.3;stroke-linecap:round"
           id="path901" />
        <path
           d="m 6,29 c -1.108,0 -2,0.892 -2,2 v 14 c 0,1.108 0.892,2 2,2 h 10 c 1.108,0 2,-0.892 2,-2 V 31 c 0,-1.108 -0.892,-2 -2,-2 z m 0,2 h 1 v 2 H 6 Z m 2,0 h 1 v 2 H 8 Z m 2,0 h 1 v 2 h -1 z m 2,0 h 1 v 2 h -1 z m 2,1 h 1 v 1 h -1 z m -3,2 a 5,5 0 0 1 5,5 5,5 0 0 1 -5,5 5,5 0 0 1 -5,-5 5,5 0 0 1 5,-5 z m 5,10 a 1,1 0 0 1 1,1 1,1 0 0 1 -1,1 1,1 0 0 1 -1,-1 1,1 0 0 1 1,-1 z"
           style="opacity:1;fill:#ffffff;fill-opacity:1;stroke-width:0.3;stroke-linecap:round"
           id="path903" />
        <circle
           r="2"
           cy="38.983547"
           cx="11"
           id="circle905"
           style="opacity:1;fill:#ffffff;fill-opacity:1;stroke-width:0.3;stroke-linecap:round" />
      </g>
      <path
         d="m 40,35 c -0.55228,0 -1,0.44772 -1,1 0,0.55228 0.44772,4 1,4 0.55228,0 1,-3.4477 1,-4 0,-0.5523 -0.44772,-1 -1,-1 z m 0,6 c -0.55228,0 -1,0.44772 -1,1 0,0.55228 0.44772,1 1,1 0.55228,0 1,-0.44772 1,-1 0,-0.55228 -0.44772,-1 -1,-1 z"
         style="opacity:1;fill:#ff7850;fill-opacity:1;stroke-width:0.3;stroke-linecap:round"
         id="rect930" />
    </g>
  </g>
  <g
     id="disk-quota-low">
    <rect
       id="rect39"
       opacity="0"
       height="22"
       width="22"
       y="0.99998534"
       x="48.999989" />
    <g
       id="g951"
       transform="translate(49,-26)">
      <path
         d="m 11,34 a 5,5 0 0 0 -5,5 5,5 0 0 0 5,5 5,5 0 0 0 5,-5 h -5 z"
         style="opacity:0.35;fill:#fdbc4b;fill-opacity:1;stroke-width:0.3;stroke-linecap:round"
         id="path945" />
      <path
         d="m 6,29 c -1.108,0 -2,0.892 -2,2 v 14 c 0,1.108 0.892,2 2,2 h 10 c 1.108,0 2,-0.892 2,-2 V 31 c 0,-1.108 -0.892,-2 -2,-2 z m 0,2 h 1 v 2 H 6 Z m 2,0 h 1 v 2 H 8 Z m 2,0 h 1 v 2 h -1 z m 2,0 h 1 v 2 h -1 z m 2,1 h 1 v 1 h -1 z m -3,2 a 5,5 0 0 1 5,5 5,5 0 0 1 -5,5 5,5 0 0 1 -5,-5 5,5 0 0 1 5,-5 z m 5,10 a 1,1 0 0 1 1,1 1,1 0 0 1 -1,1 1,1 0 0 1 -1,-1 1,1 0 0 1 1,-1 z"
         style="opacity:1;fill:#ffffff;fill-opacity:1;stroke-width:0.3;stroke-linecap:round"
         id="path947" />
      <circle
         r="2"
         cy="38.983547"
         cx="11"
         id="circle949"
         style="opacity:1;fill:#fdbc4b;fill-opacity:1;stroke-width:0.3;stroke-linecap:round" />
    </g>
  </g>
  <g
     id="disk-quota-high">
    <rect
       id="rect54"
       opacity="0"
       height="22"
       width="22"
       y="0.99998534"
       x="73.999992" />
    <g
       transform="translate(74,-26)"
       id="g973">
      <path
         id="path967"
         style="opacity:0.35;fill:#e74c3c;fill-opacity:1;stroke-width:0.3;stroke-linecap:round"
         d="m 11,34 a 5,5 0 0 0 -5,5 5,5 0 0 0 5,5 5,5 0 0 0 5,-5 h -5 z" />
      <path
         id="path969"
         style="opacity:1;fill:#ffffff;fill-opacity:1;stroke-width:0.3;stroke-linecap:round"
         d="m 6,29 c -1.108,0 -2,0.892 -2,2 v 14 c 0,1.108 0.892,2 2,2 h 10 c 1.108,0 2,-0.892 2,-2 V 31 c 0,-1.108 -0.892,-2 -2,-2 z m 0,2 h 1 v 2 H 6 Z m 2,0 h 1 v 2 H 8 Z m 2,0 h 1 v 2 h -1 z m 2,0 h 1 v 2 h -1 z m 2,1 h 1 v 1 h -1 z m -3,2 a 5,5 0 0 1 5,5 5,5 0 0 1 -5,5 5,5 0 0 1 -5,-5 5,5 0 0 1 5,-5 z m 5,10 a 1,1 0 0 1 1,1 1,1 0 0 1 -1,1 1,1 0 0 1 -1,-1 1,1 0 0 1 1,-1 z" />
      <circle
         style="opacity:1;fill:#e74c3c;fill-opacity:1;stroke-width:0.3;stroke-linecap:round"
         id="circle971"
         cx="11"
         cy="38.983547"
         r="2" />
    </g>
  </g>
  <g
     id="disk-quota-critical">
    <rect
       x="99.00399"
       y="0.99998534"
       width="22"
       height="22"
       opacity="0"
       stroke-width="1.76"
       id="rect71" />
    <g
       id="g989"
       transform="translate(75,-23)">
      <g
         transform="translate(24,-3)"
         id="g985">
        <path
           id="path979"
           style="opacity:0.35;fill:#e74c3c;fill-opacity:1;stroke-width:0.3;stroke-linecap:round"
           d="m 11,34 a 5,5 0 0 0 -5,5 5,5 0 0 0 5,5 5,5 0 0 0 5,-5 h -5 z" />
        <path
           id="path981"
           style="opacity:1;fill:#ffffff;fill-opacity:1;stroke-width:0.3;stroke-linecap:round"
           d="m 6,29 c -1.108,0 -2,0.892 -2,2 v 14 c 0,1.108 0.892,2 2,2 h 10 c 1.108,0 2,-0.892 2,-2 V 31 c 0,-1.108 -0.892,-2 -2,-2 z m 0,2 h 1 v 2 H 6 Z m 2,0 h 1 v 2 H 8 Z m 2,0 h 1 v 2 h -1 z m 2,0 h 1 v 2 h -1 z m 2,1 h 1 v 1 h -1 z m -3,2 a 5,5 0 0 1 5,5 5,5 0 0 1 -5,5 5,5 0 0 1 -5,-5 5,5 0 0 1 5,-5 z m 5,10 a 1,1 0 0 1 1,1 1,1 0 0 1 -1,1 1,1 0 0 1 -1,-1 1,1 0 0 1 1,-1 z" />
        <circle
           style="opacity:1;fill:#e74c3c;fill-opacity:1;stroke-width:0.3;stroke-linecap:round"
           id="circle983"
           cx="11"
           cy="38.983547"
           r="2" />
      </g>
      <path
         id="path987"
         style="opacity:1;fill:#e74c3c;fill-opacity:1;stroke-width:0.3;stroke-linecap:round"
         d="m 40,35 c -0.55228,0 -1,0.44772 -1,1 0,0.55228 0.44772,4 1,4 0.55228,0 1,-3.4477 1,-4 0,-0.5523 -0.44772,-1 -1,-1 z m 0,6 c -0.55228,0 -1,0.44772 -1,1 0,0.55228 0.44772,1 1,1 0.55228,0 1,-0.44772 1,-1 0,-0.55228 -0.44772,-1 -1,-1 z" />
    </g>
  </g>
</svg>
