<?xml version="1.0" encoding="UTF-8" standalone="no"?>
<svg
   xmlns:dc="http://purl.org/dc/elements/1.1/"
   xmlns:cc="http://creativecommons.org/ns#"
   xmlns:rdf="http://www.w3.org/1999/02/22-rdf-syntax-ns#"
   xmlns:svg="http://www.w3.org/2000/svg"
   xmlns="http://www.w3.org/2000/svg"
   xmlns:sodipodi="http://sodipodi.sourceforge.net/DTD/sodipodi-0.dtd"
   xmlns:inkscape="http://www.inkscape.org/namespaces/inkscape"
   inkscape:version="1.0 (4035a4fb49, 2020-05-01)"
   sodipodi:docname="quota.svg"
   version="1.1"
   viewBox="0 0 22 22"
   id="svg20">
  <sodipodi:namedview
     inkscape:current-layer="svg20"
     inkscape:window-maximized="1"
     inkscape:window-y="36"
     inkscape:window-x="0"
     inkscape:cy="14.202113"
     inkscape:cx="10.047521"
     inkscape:zoom="12.261874"
     showgrid="true"
     id="namedview14"
     inkscape:window-height="932"
     inkscape:window-width="1920"
     inkscape:pageshadow="2"
     inkscape:pageopacity="0"
     guidetolerance="10"
     gridtolerance="10"
     objecttolerance="10"
     borderopacity="1"
     bordercolor="#666666"
     pagecolor="#00b926">
    <inkscape:grid
       id="grid855"
       type="xygrid" />
  </sodipodi:namedview>
  <metadata
     id="metadata24">
    <rdf:RDF>
      <cc:Work
         rdf:about="">
        <dc:format>image/svg+xml</dc:format>
        <dc:type
           rdf:resource="http://purl.org/dc/dcmitype/StillImage" />
        <dc:title></dc:title>
      </cc:Work>
    </rdf:RDF>
  </metadata>
  <defs
     id="defs3">
    <style
       id="current-color-scheme"
       type="text/css">.ColorScheme-Text { color:#363636; }</style>
  </defs>
  <g
     transform="translate(-0.01998901,1.4648437e-5)"
     id="quota">
    <rect
       id="rect7"
       stroke-width="1.76"
       opacity="0"
       height="22"
       width="22"
       y="-1.4648437e-05"
       x="0.019989014"
       style="color:#363636;fill:#363636" />
    <g
       id="g899"
       transform="translate(0,-27)">
      <path
         d="m 11,34 a 5,5 0 0 0 -5,5 5,5 0 0 0 5,5 5,5 0 0 0 5,-5 h -5 z"
         style="opacity:0.35;fill:#ffffff;fill-opacity:1;stroke-width:0.3;stroke-linecap:round"
         id="rect886" />
      <path
         d="m 6,29 c -1.108,0 -2,0.892 -2,2 v 14 c 0,1.108 0.892,2 2,2 h 10 c 1.108,0 2,-0.892 2,-2 V 31 c 0,-1.108 -0.892,-2 -2,-2 z m 0,2 h 1 v 2 H 6 Z m 2,0 h 1 v 2 H 8 Z m 2,0 h 1 v 2 h -1 z m 2,0 h 1 v 2 h -1 z m 2,1 h 1 v 1 h -1 z m -3,2 a 5,5 0 0 1 5,5 5,5 0 0 1 -5,5 5,5 0 0 1 -5,-5 5,5 0 0 1 5,-5 z m 5,10 a 1,1 0 0 1 1,1 1,1 0 0 1 -1,1 1,1 0 0 1 -1,-1 1,1 0 0 1 1,-1 z"
         style="opacity:1;fill:#ffffff;fill-opacity:1;stroke-width:0.3;stroke-linecap:round"
         id="rect882" />
      <circle
         r="2"
         cy="38.983547"
         cx="11"
         id="path894"
         style="opacity:1;fill:#ffffff;fill-opacity:1;stroke-width:0.3;stroke-linecap:round" />
    </g>
  </g>
</svg>
